<svg width="20" height="20" viewBox="0 0 20 20" fill="none" xmlns="http://www.w3.org/2000/svg">
    <path d="M8.07034 8.92165C8.07034 8.92165 9.96267 8.78298 9.96267 6.59269C9.96267 4.40223 8.41451 3.33325 6.45343 3.33325H0.000274658V15.5738H6.45343C6.45343 15.5738 10.3928 15.6966 10.3928 11.961C10.3928 11.961 10.5646 8.92165 8.07034 8.92165ZM5.98893 5.50887H6.45343C6.45343 5.50887 7.3306 5.50887 7.3306 6.78245C7.3306 8.05587 6.81473 8.2405 6.22959 8.2405H2.84362V5.50887H5.98893ZM6.27107 13.3983H2.84362V10.1271H6.45343C6.45343 10.1271 7.76081 10.1102 7.76081 11.8082C7.76081 13.2399 6.78432 13.3875 6.27107 13.3983ZM15.6467 6.44761C10.8776 6.44761 10.8819 11.1508 10.8819 11.1508C10.8819 11.1508 10.5547 15.8299 15.6467 15.8299C15.6467 15.8299 19.8901 16.0691 19.8901 12.5749H17.7078C17.7078 12.5749 17.7806 13.8908 15.7195 13.8908C15.7195 13.8908 13.5369 14.0352 13.5369 11.7612H19.9629C19.9629 11.7612 20.666 6.44761 15.6467 6.44761ZM13.5129 10.1271C13.5129 10.1271 13.7794 8.24046 15.6952 8.24046C17.6107 8.24046 17.5867 10.1271 17.5867 10.1271H13.5129ZM18.095 5.56171H12.9786V4.05438H18.095V5.56171Z" fill="#4DC39E"/>
</svg>
